HIERARCHY
ROOT Hips
{
	OFFSET 0.000000 0.000000 0.000000 
	CHANNELS 6 Xposition Yposition Zposition Zrotation Yrotation Xrotation
	JOINT LeftUpLeg
	{
		OFFSET 1.363060 -1.794630 0.839290 
		CHANNELS 3 Zrotation Yrotation Xrotation
		JOINT LeftLeg
		{
			OFFSET 2.448110 -6.726130 0.000000 
			CHANNELS 3 Zrotation Yrotation Xrotation
			JOINT LeftFoot
			{
				OFFSET 2.562200 -7.039590 0.000000 
				CHANNELS 3 Zrotation Yrotation Xrotation
				JOINT LeftToeBase
				{
					OFFSET 0.157640 -0.433110 2.322550 
					CHANNELS 3 Zrotation Yrotation Xrotation
					End Site
					{
						OFFSET 0.000000 0.000000 0.000000 
					}
				}
			}
		}
	}
	JOINT RightUpLeg
	{
		OFFSET -1.305520 -1.794630 0.839290 
		CHANNELS 3 Zrotation Yrotation Xrotation
		JOINT RightLeg
		{
			OFFSET -2.542530 -6.985550 0.000000 
			CHANNELS 3 Zrotation Yrotation Xrotation
			JOINT RightFoot
			{
				OFFSET -2.568260 -7.056230 0.000000 
				CHANNELS 3 Zrotation Yrotation Xrotation
				JOINT RightToeBase
				{
					OFFSET -0.164730 -0.452590 2.363150 
					CHANNELS 3 Zrotation Yrotation Xrotation
					End Site
					{
						OFFSET 0.000000 0.000000 0.000000 
					}
				}
			}
		}
	}
	JOINT Spine
	{
		OFFSET 0.028270 2.035590 -0.193380 
		CHANNELS 3 Zrotation Yrotation Xrotation
		JOINT Spine1
		{
			OFFSET 0.056720 2.048850 -0.042750 
			CHANNELS 3 Zrotation Yrotation Xrotation
			JOINT Neck1
			{
				OFFSET -0.054170 1.746240 0.172020 
				CHANNELS 3 Zrotation Yrotation Xrotation
				JOINT Head
				{
					OFFSET 0.104070 1.761360 -0.123970 
					CHANNELS 3 Zrotation Yrotation Xrotation
					End Site
					{
						OFFSET 0.000000 0.000000 0.000000 
					}
				}
			}
			JOINT LeftArm
			{
				OFFSET 3.362410 1.200890 -0.311210 
				CHANNELS 3 Zrotation Yrotation Xrotation
				JOINT LeftForeArm
				{
					OFFSET 4.983000 -0.000000 -0.000000 
					CHANNELS 3 Zrotation Yrotation Xrotation
					JOINT LeftHand
					{
						OFFSET 3.483560 -0.000000 -0.000000 
						CHANNELS 3 Zrotation Yrotation Xrotation
						JOINT LeftHandIndex1
						{
							OFFSET 0.715260 -0.000000 -0.000000 
							CHANNELS 3 Zrotation Yrotation Xrotation
							End Site
							{
								OFFSET 0.000000 0.000000 0.000000 
							}
						}
					}
				}
			}
			JOINT RightArm
			{
				OFFSET -3.136600 1.374050 -0.404650 
				CHANNELS 3 Zrotation Yrotation Xrotation
				JOINT RightForeArm
				{
					OFFSET -5.241900 -0.000000 -0.000000 
					CHANNELS 3 Zrotation Yrotation Xrotation
					JOINT RightHand
					{
						OFFSET -3.444170 -0.000000 -0.000000 
						CHANNELS 3 Zrotation Yrotation Xrotation
						JOINT RightHandIndex1
						{
							OFFSET -0.622530 -0.000000 -0.000000 
							CHANNELS 3 Zrotation Yrotation Xrotation
							End Site
							{
								OFFSET 0.000000 0.000000 0.000000 
							}
						}
					}
				}
			}
		}
	}
}
MOTION
Frames: 15
Frame Time: 0.041667
0.029850 18.375535 9.077565 -10.360791 5.169282 16.394184 -16.422281 -47.966703 16.656594 -3.535229 -2.242466 -3.522006 -15.649056 46.128206 -27.249884 0.106600 2.104900 5.795600 24.080121 27.511218 0.003229 3.694766 -0.670656 2.414862 9.119573 -28.736179 -7.443499 -0.006800 -0.531700 1.460900 26.040761 8.034000 -30.259824 -11.823247 -2.078042 -7.042996 21.823534 -23.402767 25.171307 4.810800 -10.146600 9.013400 -88.570940 9.729251 -16.465906 7.164631 -7.561584 -0.981781 1.353484 2.107296 56.804746 -7.125000 0.000000 0.000000 78.721549 -13.335555 -0.220914 -9.517569 12.898618 -1.634720 1.120843 1.660786 41.158364 7.125000 0.000000 0.000000 
0.029745 18.375535 9.078196 -10.370605 5.196845 16.375493 -16.363254 -47.944778 16.624177 -3.543475 -2.259074 -3.545027 -15.461935 45.875756 -27.533434 0.144300 2.448100 6.745900 24.100794 27.607149 0.065545 3.698506 -0.662018 2.400782 9.138892 -28.783086 -7.584688 -0.033700 -1.184200 3.255900 26.050098 8.017043 -30.191468 -11.843973 -2.079949 -7.056654 21.865105 -23.461168 25.198079 4.811900 -10.170400 9.034500 -88.533375 9.676156 -16.490145 7.173490 -7.576607 -0.982051 1.369764 2.089861 56.859949 -7.125000 0.000000 0.000000 78.747178 -13.295623 -0.376418 -9.547642 12.933081 -1.641076 1.122272 1.659226 41.268423 7.125000 0.000000 0.000000 
0.030270 18.375219 9.078826 -10.400306 5.224670 16.350545 -16.346538 -47.949877 16.639818 -3.544103 -2.258909 -3.539710 -15.445557 45.849687 -27.549761 0.144400 2.449100 6.748600 24.143450 27.612060 0.098384 3.699461 -0.658517 2.395888 9.141193 -28.792558 -7.614628 -0.035400 -1.213700 3.337100 26.135016 8.011486 -30.128176 -11.871886 -2.094796 -7.086609 21.955060 -23.454215 25.149464 4.845000 -10.166100 9.029200 -88.545141 9.670920 -16.525411 7.181761 -7.590661 -0.985455 1.384450 2.087293 56.930991 -7.125000 0.000000 0.000000 78.726208 -13.307334 -0.298305 -9.561337 12.954374 -1.644838 1.120628 1.661125 41.216167 7.125000 0.000000 0.000000 
0.031216 18.374799 9.079983 -10.424392 5.233093 16.334401 -16.355307 -47.950745 16.659769 -3.543832 -2.252357 -3.518819 -15.460145 45.865571 -27.521758 0.136400 2.380200 6.557500 24.163223 27.572501 0.098815 3.698596 -0.657979 2.393413 9.140826 -28.796626 -7.568481 -0.050300 -1.448000 3.982300 26.255113 8.013347 -30.044928 -11.892565 -2.108194 -7.093204 21.887563 -23.406621 25.143573 4.829300 -10.146200 9.015400 -88.555219 9.655738 -16.512044 7.180839 -7.589665 -0.985327 1.382888 2.087986 56.944835 -7.125000 0.000000 0.000000 78.689080 -13.298602 -0.181377 -9.559261 12.956737 -1.645446 1.119107 1.663130 41.117160 7.125000 0.000000 0.000000 
0.027222 18.377427 9.083346 -10.064206 5.055963 16.530391 -16.664321 -48.149119 16.665692 -3.546042 -2.231035 -3.507615 -15.465554 45.961510 -27.851523 0.145400 2.457300 6.771300 23.756025 27.799131 0.043671 3.701549 -0.652452 2.367144 9.200285 -28.907923 -7.638109 -0.076800 -1.787300 4.918300 25.287081 7.948577 -30.570008 -11.601053 -1.978509 -6.819899 21.686094 -23.706674 25.572786 4.694300 -10.271400 9.140300 -88.273918 9.700318 -15.833702 7.188365 -7.577269 -0.975270 1.335068 2.069924 56.635569 -7.125000 0.000000 0.000000 78.779132 -13.271824 -0.221354 -9.443738 12.785108 -1.614616 1.126767 1.654158 40.833851 7.125000 0.000000 0.000000 
0.021231 18.384784 9.109937 -9.995270 5.189210 17.046632 -16.159262 -48.465248 16.103784 -3.517385 -2.202933 -3.582661 -15.571288 46.130715 -27.756711 0.133800 2.357400 6.494500 23.710868 27.998788 -0.135506 3.716015 -0.578513 2.189656 9.266098 -29.079291 -7.916410 -0.090100 -1.935400 5.327300 23.907423 7.824124 -31.339745 -11.442312 -1.829409 -6.044943 21.627154 -24.387092 26.259970 4.530000 -10.543700 9.430600 -87.762749 9.784037 -14.406989 7.209248 -7.574939 -0.962983 1.255373 2.034835 55.893137 -7.125000 0.000000 0.000000 79.005294 -13.197484 -0.224931 -9.231759 12.445297 -1.560890 1.147856 1.636019 40.229705 7.125000 0.000000 0.000000 
0.018709 18.388042 9.120763 -9.832394 5.192324 17.284942 -16.155864 -48.712152 15.985917 -3.509390 -2.185835 -3.600120 -15.613473 46.242013 -27.920001 0.135200 2.369900 6.529100 23.546766 28.114907 -0.211297 3.723185 -0.539100 2.083707 9.333469 -29.247720 -7.991500 -0.086600 -1.898600 5.225400 23.100447 7.722942 -31.756049 -11.268493 -1.749192 -5.738842 21.666365 -24.745255 26.741673 4.471200 -10.679400 9.632600 -87.534034 9.850592 -13.521853 7.232786 -7.582919 -0.959459 1.205261 2.026184 55.316706 -7.125000 0.000000 0.000000 79.077050 -13.185067 -0.117678 -9.125325 12.282576 -1.535977 1.157396 1.631336 39.880430 7.125000 0.000000 0.000000 
0.019339 18.388252 9.122130 -9.815400 5.209144 17.289817 -16.183103 -48.721545 15.976592 -3.508133 -2.177366 -3.577028 -15.629829 46.258896 -27.870499 0.130300 2.326500 6.408800 23.524967 28.122313 -0.205720 3.724252 -0.532514 2.062594 9.357019 -29.312345 -7.982477 -0.081900 -1.845900 5.080100 23.161376 7.713718 -31.713518 -11.264473 -1.764053 -5.767649 21.667386 -24.747103 26.862510 4.474300 -10.673100 9.681700 -87.556447 9.843322 -13.323022 7.240370 -7.586007 -0.962410 1.191431 2.040939 55.057065 -7.125000 0.000000 0.000000 79.038415 -13.158052 -0.103943 -9.112438 12.267937 -1.534523 1.160553 1.631856 39.906666 7.125000 0.000000 0.000000 
0.019970 18.388462 9.123601 -9.761548 5.192232 17.318976 -16.194133 -48.676148 15.876491 -3.506366 -2.160663 -3.534302 -15.620050 46.230385 -27.786533 0.126000 2.288500 6.303600 23.443726 28.187304 -0.212852 3.725304 -0.537497 2.078874 9.353312 -29.285414 -8.077281 -0.095900 -1.997500 5.498900 23.132949 7.710329 -31.725914 -11.244319 -1.756660 -5.720423 21.755649 -24.725732 26.731241 4.498800 -10.661900 9.643900 -87.556231 9.791925 -13.314727 7.249517 -7.594134 -0.964168 1.193343 2.040344 54.987298 -7.125000 0.000000 0.000000 79.023576 -13.089282 -0.239184 -9.093120 12.237356 -1.530026 1.166949 1.625501 39.997948 7.125000 0.000000 0.000000 
0.020916 18.387937 9.126229 -9.719602 5.160832 17.341464 -16.251622 -48.680248 15.885220 -3.505812 -2.162856 -3.543027 -15.658741 46.290568 -27.758812 0.118800 2.222200 6.120100 23.382847 28.206642 -0.226839 3.724978 -0.543880 2.095353 9.346591 -29.256807 -8.102491 -0.102000 -2.059900 5.671200 23.082319 7.719746 -31.768482 -11.230820 -1.742057 -5.672603 21.894302 -24.691179 26.534677 4.542700 -10.645600 9.586400 -87.556418 9.765339 -13.251425 7.262443 -7.606815 -0.967168 1.197712 2.039676 54.874371 -7.125000 0.000000 0.000000 79.040851 -13.059573 -0.394856 -9.093825 12.232206 -1.528994 1.170842 1.618029 40.066984 7.125000 0.000000 0.000000 
0.020706 18.387306 9.130538 -9.719755 5.138833 17.310463 -16.377114 -48.738452 16.078972 -3.510911 -2.190113 -3.607151 -15.690855 46.370190 -27.905136 0.121600 2.248000 6.191600 23.404523 28.228446 -0.154344 3.725746 -0.539683 2.089645 9.350977 -29.268770 -8.117870 -0.100200 -2.041500 5.620500 23.145332 7.737691 -31.722474 -11.232418 -1.739526 -5.677824 21.902565 -24.676099 26.541508 4.545300 -10.635400 9.588000 -87.566445 9.752842 -13.133317 7.267536 -7.609266 -0.968304 1.196057 2.042036 54.702635 -7.125000 0.000000 0.000000 79.049405 -13.067972 -0.408366 -9.101467 12.243145 -1.529896 1.168475 1.617335 40.003300 7.125000 0.000000 0.000000 
0.020180 18.386886 9.134532 -9.745579 5.139500 17.254109 -16.448217 -48.741480 16.213986 -3.517008 -2.211080 -3.645634 -15.657958 46.341827 -28.038984 0.129700 2.321000 6.393600 23.459554 28.285850 -0.036234 3.728241 -0.524887 2.059110 9.370472 -29.326002 -8.162940 -0.098600 -2.025200 5.575300 23.347441 7.755251 -31.587354 -11.253926 -1.757779 -5.712925 21.862753 -24.668502 26.608286 4.535900 -10.629800 9.611700 -87.611285 9.713317 -13.182036 7.266423 -7.606365 -0.966962 1.198021 2.038031 54.685798 -7.125000 0.000000 0.000000 79.015141 -13.068530 -0.330818 -9.104092 12.252740 -1.529001 1.161635 1.618096 39.917437 7.125000 0.000000 0.000000 
0.020075 18.386571 9.136529 -9.780094 5.156586 17.216729 -16.442500 -48.714800 16.229275 -3.516505 -2.207599 -3.630005 -15.668936 46.342247 -27.962848 0.122600 2.257200 6.217100 23.512009 28.313654 0.021874 3.728873 -0.520234 2.045451 9.394949 -29.401072 -8.159447 -0.092000 -1.956400 5.385300 23.530590 7.778664 -31.500183 -11.284036 -1.776602 -5.759258 21.877794 -24.653441 26.572630 4.551700 -10.626500 9.609300 -87.671191 9.708092 -13.105793 7.280088 -7.619834 -0.968487 1.193859 2.036194 54.548388 -7.125000 0.000000 0.000000 78.984672 -13.085050 -0.267497 -9.117363 12.276569 -1.529691 1.153193 1.617569 39.857398 7.125000 0.000000 0.000000 
0.020811 18.386255 9.137685 -9.795051 5.161932 17.232235 -16.404710 -48.700398 16.183443 -3.512007 -2.196948 -3.608459 -15.722820 46.398231 -27.809150 0.112400 2.161400 5.951900 23.522631 28.339621 0.008346 3.728381 -0.526623 2.058436 9.398985 -29.413466 -8.171524 -0.091400 -1.949700 5.366800 23.547924 7.803835 -31.523584 -11.297709 -1.772421 -5.766977 21.966159 -24.666238 26.541231 4.589900 -10.633300 9.617300 -87.706190 9.737342 -12.845562 7.306284 -7.644618 -0.970338 1.172867 2.033409 54.268385 -7.125000 0.000000 0.000000 78.985559 -13.089750 -0.335460 -9.116867 12.274913 -1.528264 1.149694 1.617330 39.887534 7.125000 0.000000 0.000000 
0.021652 18.386150 9.138631 -9.808133 5.165369 17.279404 -16.319281 -48.684674 16.089879 -3.508108 -2.194541 -3.609204 -15.746745 46.417657 -27.714808 0.107200 2.111200 5.813200 23.508992 28.347900 -0.052569 3.727161 -0.533097 2.070361 9.387674 -29.382701 -8.163487 -0.095600 -1.994400 5.490100 23.530982 7.822407 -31.566961 -11.303887 -1.766584 -5.747827 22.069829 -24.692220 26.538501 4.628200 -10.641900 9.639300 -87.729883 9.751341 -12.658281 7.323237 -7.658750 -0.970959 1.153840 2.032213 54.070711 -7.125000 0.000000 0.000000 78.990785 -13.047733 -0.498830 -9.086122 12.228130 -1.522293 1.155698 1.615960 40.000258 7.125000 0.000000 0.000000 
